# xmcd
#
# Track frame offsets:
#	150
#	12706
#	29167
#	53733
#	71362
#	95873
#	106457
#	121103
#	137125
#	147610
#	166911
#	194378
#
# Disc length: 2795 seconds
#
# Revision: 1
# Processed by: cddbd v1.5.2PL0 Copyright (c) Steve Scherf et al.
# Submitted via: audiograbber 1.83.01
#
DISCID=b60ae90c
DTITLE=Dylan, Bob - Greatest Hits
DYEAR=1900
DGENRE=Blues
TTITLE0=Blowin알n the wind
TTITLE1=Don앖 think twice it압 allright
TTITLE2=Queen Jane approximately
TTITLE3=Maggie압 farm
TTITLE4=Mr. tambourine man
TTITLE5=Bob Dylan압 blues
TTITLE6=The times they are a changing
TTITLE7=It ain앖 me babe
TTITLE8=Subterranean homesick blues
TTITLE9=It압 all over now baby blue
TTITLE10=Like a rolling stone
TTITLE11=Highway 61 revisted
EXTD=
EXTT0=
EXTT1=
EXTT2=
EXTT3=
EXTT4=
EXTT5=
EXTT6=
EXTT7=
EXTT8=
EXTT9=
EXTT10=
EXTT11=
PLAYORDER=
